<svg width="18" height="19" viewBox="0 0 18 19" fill="none" xmlns="http://www.w3.org/2000/svg">
<g clip-path="url(#clip0_3_374)">
<path d="M17.9918 9.67772C17.9918 8.8993 17.9306 8.33126 17.798 7.74219H9.17969V11.2556H14.2385C14.1365 12.1287 13.5858 13.4436 12.3618 14.3272L12.3447 14.4448L15.0696 16.6221L15.2584 16.6415C16.9923 14.99 17.9918 12.56 17.9918 9.67772Z" fill="#4285F4"/>
<path d="M9.17969 18.9348C11.6581 18.9348 13.7387 18.0932 15.2584 16.6416L12.3618 14.3273C11.5867 14.8848 10.5464 15.274 9.17969 15.274C6.75229 15.274 4.69206 13.6225 3.95765 11.3398L3.85 11.3493L1.01655 13.6109L0.979492 13.7172C2.48896 16.8098 5.58953 18.9348 9.17969 18.9348Z" fill="#34A853"/>
<path d="M3.95726 11.3398C3.76348 10.7508 3.65133 10.1196 3.65133 9.46739C3.65133 8.81516 3.76348 8.18402 3.94706 7.59495L3.94193 7.46949L1.07297 5.17151L0.979102 5.21756C0.356977 6.50093 0 7.9421 0 9.46739C0 10.9927 0.356977 12.4338 0.979102 13.7172L3.95726 11.3398Z" fill="#FBBC05"/>
<path d="M9.17969 3.66069C10.9033 3.66069 12.066 4.4286 12.729 5.07032L15.3196 2.46152C13.7286 0.936221 11.6581 0 9.17969 0C5.58953 0 2.48896 2.12488 0.979492 5.21753L3.94745 7.59492C4.69206 5.31224 6.75229 3.66069 9.17969 3.66069Z" fill="#EB4335"/>
</g>
<defs>
<clipPath id="clip0_3_374">
<rect width="18" height="19" fill="white"/>
</clipPath>
</defs>
</svg>
